{
	"asset":{
		"generator":"Khronos glTF Blender I/O v4.2.60",
		"version":"2.0"
	},
	"extensionsUsed":[
		"KHR_materials_transmission",
		"KHR_materials_specular"
	],
	"scene":0,
	"scenes":[
		{
			"name":"Scene",
			"nodes":[
				0
			]
		}
	],
	"nodes":[
		{
			"mesh":0,
			"name":"12960_Shark_v2_L1",
			"scale":[
				0.10000002384185791,
				0.10000002384185791,
				0.10000002384185791
			]
		}
	],
	"materials":[
		{
			"doubleSided":true,
			"extensions":{
				"KHR_materials_transmission":{
					"transmissionFactor":1
				},
				"KHR_materials_specular":{
					"specularFactor":0.7919999957084656
				}
			},
			"name":"12960_Shark",
			"pbrMetallicRoughness":{
				"baseColorTexture":{
					"index":0
				},
				"metallicFactor":0,
				"roughnessFactor":0.873508870601654
			}
		}
	],
	"meshes":[
		{
			"name":"12960_Shark_v2_L1",
			"primitives":[
				{
					"attributes":{
						"POSITION":0,
						"NORMAL":1,
						"TEXCOORD_0":2
					},
					"indices":3,
					"material":0
				}
			]
		}
	],
	"textures":[
		{
			"sampler":0,
			"source":0
		}
	],
	"images":[
		{
			"mimeType":"image/jpeg",
			"name":"12960_Shark_diff_v2",
			"uri":"12960_Shark_diff_v2.jpg"
		}
	],
	"accessors":[
		{
			"bufferView":0,
			"componentType":5126,
			"count":27681,
			"max":[
				123.52790069580078,
				36.31800079345703,
				38.365299224853516
			],
			"min":[
				-123.52790069580078,
				-36.31800079345703,
				-38.365299224853516
			],
			"type":"VEC3"
		},
		{
			"bufferView":1,
			"componentType":5126,
			"count":27681,
			"type":"VEC3"
		},
		{
			"bufferView":2,
			"componentType":5126,
			"count":27681,
			"type":"VEC2"
		},
		{
			"bufferView":3,
			"componentType":5123,
			"count":149106,
			"type":"SCALAR"
		}
	],
	"bufferViews":[
		{
			"buffer":0,
			"byteLength":332172,
			"byteOffset":0,
			"target":34962
		},
		{
			"buffer":0,
			"byteLength":332172,
			"byteOffset":332172,
			"target":34962
		},
		{
			"buffer":0,
			"byteLength":221448,
			"byteOffset":664344,
			"target":34962
		},
		{
			"buffer":0,
			"byteLength":298212,
			"byteOffset":885792,
			"target":34963
		}
	],
	"samplers":[
		{
			"magFilter":9729,
			"minFilter":9987
		}
	],
	"buffers":[
		{
			"byteLength":1184004,
			"uri":"sixgillshark.bin"
		}
	]
}
